<?xml version="1.0" encoding="UTF-8"?>
<svg id="_圖層_2" data-name="圖層 2" xmlns="http://www.w3.org/2000/svg" viewBox="0 0 840.25 187.37">
  <defs>
    <style>
      .cls-1 {
        fill: #fac03d;
      }

      .cls-2 {
        fill: #3863ae;
      }

      .cls-3 {
        fill: #fff;
      }

      .cls-4 {
        fill: #231815;
      }

      .cls-5 {
        fill: #ed7971;
      }
    </style>
  </defs>
  <g id="_圖層_3" data-name="圖層 3">
    <g>
      <g>
        <path class="cls-2" d="M9.21,142.69c-5.12,0-9.23-4.31-8.9-9.41C5.15,58.86,67.05,0,142.69,0s137.54,58.86,142.38,133.28c.33,5.11-3.78,9.41-8.9,9.41H9.21Z"/>
        <circle class="cls-3" cx="198.18" cy="71.35" r="15.99"/>
        <circle class="cls-3" cx="87.2" cy="71.35" r="15.99"/>
        <path class="cls-5" d="M42.32,170.17c14.96,0,27.08-7.34,27.08-16.39H6.09c-3.9,5.34-6.09,11.24-6.09,17.45,0,5.4,1.65,10.56,4.64,15.32h64.76c0-9.05-12.12-16.39-27.08-16.39Z"/>
        <path class="cls-5" d="M136.6,153.78h-67.21c0,9.05,12.12,16.39,27.08,16.39-14.96,0-27.08,7.34-27.08,16.39h68.65c2.99-4.76,4.64-9.93,4.64-15.32,0-6.21-2.18-12.12-6.09-17.45Z"/>
        <path class="cls-5" d="M214.52,153.78c0,9.05,12.12,16.39,27.08,16.39-14.96,0-27.08,7.34-27.08,16.39h66.21c3-4.77,4.65-9.94,4.65-15.34,0-6.21-2.18-12.1-6.07-17.44h-64.79Z"/>
        <path class="cls-5" d="M187.44,170.17c14.96,0,27.08-7.34,27.08-16.39h-65.76c-3.89,5.33-6.07,11.23-6.07,17.44,0,5.4,1.66,10.57,4.65,15.34h67.18c0-9.05-12.12-16.39-27.08-16.39Z"/>
        <g>
          <path class="cls-1" d="M285.38,186.56v-15.34c0,5.4-1.66,10.57-4.65,15.34h4.65Z"/>
          <g>
            <path class="cls-1" d="M0,186.56h4.64c-2.99-4.76-4.64-9.93-4.64-15.32v15.32Z"/>
            <path class="cls-1" d="M148.76,153.78h-12.16c3.9,5.34,6.09,11.24,6.09,17.45,0,5.4-1.65,10.56-4.64,15.32h9.29c-3-4.77-4.65-9.94-4.65-15.34,0-6.21,2.18-12.1,6.07-17.44Z"/>
            <path class="cls-1" d="M0,153.78v17.45c0-6.21,2.18-12.12,6.09-17.45H0Z"/>
            <path class="cls-1" d="M279.31,153.78c3.89,5.33,6.07,11.23,6.07,17.44v-17.44h-6.07Z"/>
            <path class="cls-3" d="M187.44,170.17c14.96,0,27.08,7.34,27.08,16.39,0-9.05,12.12-16.39,27.08-16.39-14.96,0-27.08-7.34-27.08-16.39,0,9.05-12.12,16.39-27.08,16.39Z"/>
            <path class="cls-3" d="M42.32,170.17c14.96,0,27.08,7.34,27.08,16.39,0-9.05,12.12-16.39,27.08-16.39-14.96,0-27.08-7.34-27.08-16.39,0,9.05-12.12,16.39-27.08,16.39Z"/>
          </g>
        </g>
        <g>
          <path class="cls-3" d="M143.41,117.65c-19.55,0-39.33-.48-59.22-1.44l.25-5.19c39.61,1.91,78.8,1.91,116.48,0l.26,5.19c-18.93.96-38.23,1.44-57.78,1.44Z"/>
          <path class="cls-3" d="M97.99,124.67h-5.2c0-8.21-7.61-8.45-8.48-8.45v-5.2c.86-.01,8.48-.32,8.48-8.45h5.2c0,5.55-2.37,9.01-5.31,11.05,2.94,2.04,5.31,5.5,5.31,11.05Z"/>
          <path class="cls-3" d="M192.58,124.67h-5.2c0-5.55,2.37-9.01,5.32-11.05-2.95-2.04-5.32-5.5-5.32-11.05h5.2c0,8.12,7.63,8.44,8.5,8.45v5.2c-.87.01-8.5.32-8.5,8.45Z"/>
        </g>
        <g>
          <circle class="cls-1" cx="198.42" cy="71.56" r="4.77"/>
          <path class="cls-1" d="M221.73,51.66c.96-2.45-.26-5.22-2.71-6.17-2.03-.79-4.27-.08-5.52,1.58h-.01s-.08.12-.08.12c-.08.12-.16.24-.23.36l-9.83,15.63c-.18.17-.32.38-.42.62-.36.92.1,1.95,1.01,2.31.79.31,1.65.01,2.11-.65l.04.04,14.32-11.97h-.01c.56-.5,1.03-1.12,1.32-1.86Z"/>
        </g>
      </g>
      <g>
        <g>
          <path class="cls-4" d="M590.25,68.1h1.74v7.21h13.54v-7.21h1.74v16.54h-1.74v-8.15h-13.54v8.15h-1.74v-16.54Z"/>
          <path class="cls-4" d="M615.59,68.1v10.02c0,4.4,3.38,5.53,6.57,5.53,3.77,0,6.58-1.16,6.58-5.53v-10.02h1.77v9.95c0,5.17-3.74,6.78-8.41,6.78s-8.32-1.77-8.32-6.57v-10.16h1.8Z"/>
          <path class="cls-4" d="M656.56,77.03c0-3.24.03-6.33.13-7.99h-.1c-.9,2.22-5.48,10.37-8.35,15.59h-1.71c-2.16-4.04-6.9-13.11-7.93-15.62h-.06c.16,1.89.23,5.74.23,8.58v7.04h-1.74v-16.54h2.61c3.09,5.67,6.99,13.09,7.83,14.96h.06c.52-1.2,5.03-9.45,8.19-14.96h2.58v16.54h-1.74v-7.61Z"/>
          <path class="cls-4" d="M664.94,68.1h7.86c4.32,0,6.64,1.68,6.64,4.06,0,1.96-1.61,3.24-3.48,3.61,1.61.33,4.29,1.49,4.29,4.09,0,3.31-3.38,4.77-7.32,4.77h-7.99v-16.54ZM672.23,75.21c3.9,0,5.38-1.06,5.38-2.98,0-1.63-1.55-2.95-4.71-2.95h-6.25v5.93h5.57ZM666.65,83.46h6.35c2.96,0,5.45-1.09,5.45-3.52,0-2.1-1.84-3.54-6.38-3.54h-5.41v7.06Z"/>
          <path class="cls-4" d="M685.41,68.1h1.74v15.36h12.12l-.32,1.18h-13.54v-16.54Z"/>
          <path class="cls-4" d="M716.01,76.51h-11.5v6.95h12.6l-.26,1.18h-14.08v-16.54h13.83v1.18h-12.08v6.05h11.5v1.18Z"/>
          <path class="cls-4" d="M729.94,68.1h7.48c6.19,0,10.47,3.17,10.47,8.13s-4.19,8.41-10.51,8.41h-7.45v-16.54ZM731.68,83.46h5.45c5.96,0,8.89-3.07,8.89-7.16,0-3.64-2.64-7.02-8.89-7.02h-5.45v14.18Z"/>
          <path class="cls-4" d="M766.1,76.51h-11.5v6.95h12.6l-.26,1.18h-14.08v-16.54h13.83v1.18h-12.08v6.05h11.5v1.18Z"/>
          <path class="cls-4" d="M772.01,80.19c.68,2.2,2.67,3.5,6.38,3.5,4.13,0,5.7-1.51,5.7-3.31s-1.13-3.02-6.09-3.92c-4.77-.87-6.83-2.01-6.83-4.4,0-2.17,2.16-4.2,6.99-4.2s7.06,2.22,7.35,4.23h-1.81c-.51-1.77-2.09-3.05-5.64-3.05-3.26,0-5.03,1.11-5.03,2.96s1.48,2.53,5.64,3.28c6.35,1.16,7.28,3.02,7.28,5.01,0,2.43-2.42,4.54-7.64,4.54-5.64,0-7.7-2.41-8.12-4.63h1.81Z"/>
          <path class="cls-4" d="M792.64,68.1v16.54h-1.74v-16.54h1.74Z"/>
          <path class="cls-4" d="M816.36,84.64h-1.45c-.13-.19-.19-1.04-.23-2.65-.81,1.13-2.58,2.84-7.28,2.84-6.48,0-9.8-3.62-9.8-8.32,0-4.94,3.55-8.65,10.15-8.65,4.87,0,8.09,1.87,8.8,4.92h-1.74c-.97-2.34-3.19-3.74-7.12-3.74-5.64,0-8.22,3.22-8.22,7.4,0,3.78,2.48,7.21,7.99,7.21s7.22-2.69,7.22-6.36v-.19h-7.28v-1.18h8.96v8.72Z"/>
          <path class="cls-4" d="M822.2,84.64v-16.54h2.58c3.51,3.97,11.76,13.21,13.18,15h.03c-.19-2.39-.16-4.82-.16-7.51v-7.49h1.77v16.54h-2.38c-3.35-3.83-11.73-13.44-13.34-15.26h-.03c.16,2.17.13,4.58.13,7.58v7.68h-1.77Z"/>
        </g>
        <g>
          <path class="cls-4" d="M590.25,45.16h1.74v7.21h13.54v-7.21h1.74v16.54h-1.74v-8.15h-13.54v8.15h-1.74v-16.54Z"/>
          <path class="cls-4" d="M616.01,55.98l-2.87,5.72h-1.77l8.28-16.54h2.06l8.64,16.54h-1.9l-2.93-5.72h-9.51ZM624.93,54.8c-2.51-4.91-3.8-7.28-4.25-8.39h-.03c-.55,1.25-2,4.18-4.03,8.39h8.32Z"/>
          <path class="cls-4" d="M634.35,45.16h1.74v15.36h12.12l-.32,1.18h-13.54v-16.54Z"/>
          <path class="cls-4" d="M651.69,45.16h13.67v1.18h-11.92v6.24h11.18v1.18h-11.18v7.94h-1.74v-16.54Z"/>
        </g>
        <rect class="cls-4" x="324.05" y="58.43" width="50.72" height="3.51"/>
        <rect class="cls-4" x="321.01" y="68.28" width="56.81" height="3.51"/>
        <rect class="cls-4" x="347.84" y="45.72" width="3.51" height="39.85"/>
        <rect class="cls-4" x="359.27" y="50.24" width="11.82" height="3.51" transform="translate(29.92 205.81) rotate(-32.75)"/>
        <path class="cls-4" d="M336.53,57.27c-5.86-3.83-9.28-7.08-9.42-7.21l2.42-2.53s3.35,3.17,8.91,6.81l-1.92,2.93Z"/>
        <rect class="cls-4" x="401.76" y="45.86" width="3.51" height="5.87"/>
        <rect class="cls-4" x="387.89" y="48.3" width="30.5" height="3.51"/>
        <path class="cls-4" d="M412.81,61.44h-19.29v-7.18h19.29v7.18ZM395.86,59.1h14.62v-2.51h-14.62v2.51Z"/>
        <path class="cls-4" d="M402.11,79.34c-3.56,0-8.2-2.64-8.81-3l1.18-2.02c2.38,1.39,6.85,3.3,8.68,2.51.26-.11.57-.32.72-.93.94-3.97-3.53-5.97-3.57-5.99l.1-2.18,6.71-2.23h-15.57v-2.34h22.8l.37,2.28-11.24,3.73c1.81,1.52,3.46,3.99,2.68,7.26-.29,1.2-1,2.08-2.07,2.54-.58.25-1.25.35-1.96.35Z"/>
        <rect class="cls-4" x="389.1" y="68.95" width="28.17" height="2.34" transform="translate(-4.86 38.92) rotate(-5.49)"/>
        <path class="cls-4" d="M450.26,78.85c-.6,0-1.23-.07-1.88-.2-5.96-1.19-4.51-15.09-3.21-22.89h-24.8v-3.51h26.89c.52,0,1.02.23,1.35.63.33.4.47.93.37,1.44-2.12,11.33-1.7,20.53.08,20.89,1.3.26,2.3.13,3.08-.4,1.71-1.16,1.73-3.25,1.73-3.33l3.51-.04c0,.16.03,4.03-3.26,6.27-1.11.76-2.4,1.14-3.85,1.14Z"/>
        <path class="cls-4" d="M418.88,79.72l-1.66-3.09c5.75-3.1,9.78-8.04,11.97-14.68,2.38-7.22,2.37-14.37,2.37-14.44l3.51-.02c0,.32.01,7.8-2.55,15.56-2.48,7.52-7.07,13.12-13.64,16.66Z"/>
        <rect class="cls-4" x="426.9" y="59.14" width="3.51" height="16.82" transform="translate(117.8 370.33) rotate(-53.2)"/>
        <rect class="cls-4" x="321.24" y="105.12" width="3.51" height="17.59" transform="translate(36.26 301.22) rotate(-52.58)"/>
        <rect class="cls-4" x="320.16" y="125.53" width="3.51" height="21.19" transform="translate(9.55 292.95) rotate(-49.58)"/>
        <rect class="cls-4" x="304.09" y="167.24" width="34.9" height="3.51" transform="translate(38.11 396.18) rotate(-66.44)"/>
        <rect class="cls-4" x="333.78" y="111.32" width="47.45" height="3.51"/>
        <polygon class="cls-4" points="367.92 124.6 347.09 124.6 347.09 106.66 350.59 106.66 350.59 121.09 364.41 121.09 364.41 106.66 367.92 106.66 367.92 124.6"/>
        <path class="cls-4" d="M378.38,145.82h-41.75v-16.33h41.75v16.33ZM340.13,142.32h34.74v-9.32h-34.74v9.32Z"/>
        <path class="cls-4" d="M333.2,187.37l-1.35-3.24c18.35-7.67,23.19-17.07,23.9-18.68v-42.62h3.51l-.1,43.53c-.16.48-4.31,11.94-25.96,21Z"/>
        <path class="cls-4" d="M382.45,185.83c-17.03-.54-26.14-18.48-26.52-19.24l3.14-1.56c.08.17,8.58,16.83,23.49,17.3l-.11,3.51Z"/>
        <rect class="cls-4" x="337" y="151.78" width="43.14" height="3.51"/>
        <rect class="cls-4" x="332.53" y="163.39" width="50.83" height="3.51"/>
        <path class="cls-4" d="M391.84,132.48l-2.48-2.48c10.01-10.01,15.67-23.86,15.72-24l3.25,1.31c-.24.59-5.98,14.65-16.49,25.17Z"/>
        <rect class="cls-4" x="399.15" y="117.86" width="3.51" height="39.8"/>
        <path class="cls-4" d="M449.3,125.21h-32.21v-17.55h32.21v17.55ZM420.6,121.7h25.2v-10.54h-25.2v10.54Z"/>
        <rect class="cls-4" x="411.82" y="131.63" width="41" height="3.51"/>
        <rect class="cls-4" x="431.44" y="122.85" width="3.51" height="32.83"/>
        <path class="cls-4" d="M409.41,152.19l-.82-3.41c.16-.04,15.94-3.97,23.1-16.28l2.25-3.87.97,4.37c.02.06,2.45,8.86,22.23,15.83l-1.16,3.3c-14.69-5.18-20.65-11.48-23.01-15.2-8.39,11.5-22.91,15.1-23.56,15.25Z"/>
        <rect class="cls-4" x="399.64" y="161.71" width="50.81" height="3.51"/>
        <rect class="cls-4" x="423.3" y="157.66" width="3.51" height="25.5"/>
        <rect class="cls-4" x="391.67" y="181.41" width="64.89" height="3.51"/>
        <rect class="cls-4" x="388.66" y="81.07" width="5.75" height="3.51" transform="translate(61.85 309.69) rotate(-46.48)"/>
        <rect class="cls-4" x="407.26" y="80.36" width="3.51" height="5.33" transform="translate(16.28 224.24) rotate(-31.25)"/>
        <rect class="cls-4" x="425.34" y="80.51" width="3.51" height="4.63" transform="translate(6.4 193.68) rotate(-25.74)"/>
        <rect class="cls-4" x="446.32" y="75.94" width="3.5" height="14.74" transform="translate(214.02 474.37) rotate(-69.63)"/>
        <rect class="cls-4" x="480.65" y="106.66" width="3.51" height="8.09"/>
        <rect class="cls-4" x="468.2" y="113" width="27.94" height="3.51"/>
        <rect class="cls-4" x="471.57" y="123.23" width="20.26" height="3.51"/>
        <rect class="cls-4" x="471.57" y="134.73" width="20.26" height="3.51"/>
        <path class="cls-4" d="M493.58,184.91h-23.76v-36.18h23.76v36.18ZM473.32,181.41h16.75v-29.17h-16.75v29.17Z"/>
        <rect class="cls-4" x="556.67" y="106.66" width="3.51" height="8.09"/>
        <rect class="cls-4" x="544.22" y="113" width="27.94" height="3.51"/>
        <rect class="cls-4" x="806.05" y="106.66" width="3.51" height="8.09"/>
        <polygon class="cls-4" points="840.25 132.4 836.75 132.4 836.75 116.51 778.41 116.51 778.41 132.4 774.9 132.4 774.9 113 840.25 113 840.25 132.4"/>
        <rect class="cls-4" x="548.07" y="123.23" width="20.26" height="3.51"/>
        <rect class="cls-4" x="548.07" y="134.73" width="20.26" height="3.51"/>
        <path class="cls-4" d="M570.08,184.91h-23.76v-36.18h23.76v36.18ZM549.82,181.41h16.75v-29.17h-16.75v29.17Z"/>
        <path class="cls-4" d="M533.64,138.44c-11.68-3.77-12.42-21.41-12.33-27.28h-10.7c.5,5.5.59,20.42-11.97,26.88l-1.6-3.12c12.92-6.64,9.9-25.03,9.86-25.22-.09-.51.05-1.03.39-1.43.33-.4.82-.63,1.34-.63h14.5c.49,0,.95.2,1.28.55.33.36.5.83.47,1.31-.01.22-1.33,21.98,9.84,25.58l-1.08,3.34Z"/>
        <path class="cls-4" d="M499.97,184.7l-1.68-3.08c21.38-11.67,26.84-28.98,28.1-34.73h-24.27v-3.51h26.36c.5,0,.97.21,1.3.58.33.37.49.86.44,1.35-.1.99-2.81,24.4-30.25,39.38Z"/>
        <path class="cls-4" d="M534.62,184.77c-22.89-9.58-33.09-33.57-33.51-34.58l3.24-1.35c.1.24,10.09,23.68,31.63,32.7l-1.36,3.23Z"/>
        <rect class="cls-4" x="575.73" y="123.92" width="36.8" height="3.51"/>
        <rect class="cls-4" x="592.38" y="106.66" width="3.51" height="78.63"/>
        <rect class="cls-4" x="630.43" y="114.27" width="54.41" height="3.51"/>
        <rect class="cls-4" x="621.61" y="182.32" width="69.38" height="3.51"/>
        <rect class="cls-4" x="655.08" y="116.02" width="3.51" height="67.9"/>
        <path class="cls-4" d="M698.62,143.03l-2.78-2.13c7.98-10.42,18.6-32.48,18.71-32.7l3.16,1.52c-.44.92-10.88,22.61-19.08,33.32Z"/>
        <path class="cls-4" d="M718.44,144.85l-2.45-2.51c10.61-10.32,19.43-36.47,19.52-36.73l3.32,1.11c-.37,1.1-9.19,27.22-20.4,38.13Z"/>
        <rect class="cls-4" x="729.72" y="122.16" width="34.5" height="3.51"/>
        <rect class="cls-4" x="705.91" y="125.27" width="3.51" height="60.82"/>
        <rect class="cls-4" x="737.99" y="139.37" width="21.88" height="3.51"/>
        <rect class="cls-4" x="737.99" y="154.38" width="21.25" height="3.51"/>
        <rect class="cls-4" x="788.38" y="128.61" width="38.18" height="3.51"/>
        <path class="cls-4" d="M788.38,153.84c-.69,0-1.33-.41-1.61-1.06-.3-.7-.12-1.51.45-2.01.12-.11,12.31-10.92,17.02-21.19l3.19,1.46c-3.36,7.33-10,14.66-14.18,18.84l32.16-2.95.32,3.49-37.19,3.41c-.05,0-.11,0-.16,0Z"/>
        <path class="cls-4" d="M828.88,156.22c-3.34-6.63-11.72-12.81-11.8-12.87l2.07-2.83c.37.27,9.13,6.73,12.86,14.12l-3.13,1.58Z"/>
        <rect class="cls-4" x="805.82" y="150.33" width="3.51" height="33.74"/>
        <rect class="cls-4" x="775.36" y="182.32" width="64.24" height="3.51"/>
        <rect class="cls-4" x="783.91" y="164.45" width="47.53" height="3.51"/>
        <rect class="cls-4" x="735.42" y="123.91" width="3.51" height="62.18"/>
      </g>
    </g>
  </g>
</svg>