<?xml version="1.0" encoding="UTF-8"?>
<svg id="_圖層_2" data-name="圖層 2" xmlns="http://www.w3.org/2000/svg" viewBox="0 0 285.49 285.74">
  <defs>
    <style>
      .cls-1 {
        fill: #fac03d;
      }

      .cls-2 {
        fill: #fff;
      }

      .cls-3 {
        fill: #1a1a1a;
      }

      .cls-4 {
        fill: #ed7971;
      }
    </style>
  </defs>
  <g id="_圖層_3" data-name="圖層 3">
    <g>
      <g>
        <path class="cls-2" d="M9.26,142.69c-5.12,0-9.23-4.31-8.9-9.41C5.21,58.86,67.1,0,142.75,0s137.54,58.86,142.38,133.28c.33,5.11-3.78,9.41-8.9,9.41H9.26Z"/>
        <circle class="cls-3" cx="198.23" cy="71.35" r="15.99"/>
        <circle class="cls-3" cx="87.25" cy="71.35" r="15.99"/>
        <path class="cls-4" d="M42.38,170.17c14.96,0,27.08-7.34,27.08-16.39H6.14C2.24,159.12.05,165.02.05,171.24c0,5.4,1.65,10.56,4.64,15.32h64.76c0-9.05-12.12-16.39-27.08-16.39Z"/>
        <path class="cls-4" d="M136.66,153.78h-67.21c0,9.05,12.12,16.39,27.08,16.39-14.96,0-27.08,7.34-27.08,16.39h68.65c2.99-4.76,4.64-9.93,4.64-15.32,0-6.21-2.18-12.12-6.09-17.45Z"/>
        <path class="cls-4" d="M214.57,153.78c0,9.05,12.12,16.39,27.08,16.39-14.96,0-27.08,7.34-27.08,16.39h66.21c3-4.77,4.65-9.94,4.65-15.34,0-6.21-2.18-12.1-6.07-17.44h-64.79Z"/>
        <path class="cls-4" d="M187.5,170.17c14.96,0,27.08-7.34,27.08-16.39h-65.76c-3.89,5.33-6.07,11.23-6.07,17.44,0,5.4,1.66,10.57,4.65,15.34h67.18c0-9.05-12.12-16.39-27.08-16.39Z"/>
        <g>
          <path class="cls-1" d="M285.44,186.56v-15.34c0,5.4-1.66,10.57-4.65,15.34h4.65Z"/>
          <g>
            <path class="cls-1" d="M.05,186.56h4.64C1.71,181.8.05,176.63.05,171.24v15.32Z"/>
            <path class="cls-1" d="M148.82,153.78h-12.16c3.9,5.34,6.09,11.24,6.09,17.45,0,5.4-1.65,10.56-4.64,15.32h9.29c-3-4.77-4.65-9.94-4.65-15.34,0-6.21,2.18-12.1,6.07-17.44Z"/>
            <path class="cls-1" d="M.05,153.78v17.45c0-6.21,2.18-12.12,6.09-17.45H.05Z"/>
            <path class="cls-1" d="M279.36,153.78c3.89,5.33,6.07,11.23,6.07,17.44v-17.44h-6.07Z"/>
            <path class="cls-2" d="M187.5,170.17c14.96,0,27.08,7.34,27.08,16.39,0-9.05,12.12-16.39,27.08-16.39-14.96,0-27.08-7.34-27.08-16.39,0,9.05-12.12,16.39-27.08,16.39Z"/>
            <path class="cls-2" d="M42.38,170.17c14.96,0,27.08,7.34,27.08,16.39,0-9.05,12.12-16.39,27.08-16.39-14.96,0-27.08-7.34-27.08-16.39,0,9.05-12.12,16.39-27.08,16.39Z"/>
          </g>
        </g>
        <g>
          <path class="cls-3" d="M143.47,117.65c-19.55,0-39.33-.48-59.22-1.44l.25-5.19c39.61,1.91,78.8,1.91,116.48,0l.26,5.19c-18.93.96-38.23,1.44-57.78,1.44Z"/>
          <path class="cls-3" d="M98.05,124.67h-5.2c0-8.21-7.61-8.45-8.48-8.45v-5.2c.86-.01,8.48-.32,8.48-8.45h5.2c0,5.55-2.37,9.01-5.31,11.05,2.94,2.04,5.31,5.5,5.31,11.05Z"/>
          <path class="cls-3" d="M192.63,124.67h-5.2c0-5.55,2.37-9.01,5.32-11.05-2.95-2.04-5.32-5.5-5.32-11.05h5.2c0,8.12,7.63,8.44,8.5,8.45v5.2c-.87.01-8.5.32-8.5,8.45Z"/>
        </g>
        <g>
          <circle class="cls-1" cx="198.48" cy="71.56" r="4.77"/>
          <path class="cls-1" d="M221.79,51.66c.96-2.45-.26-5.22-2.71-6.17-2.03-.79-4.27-.08-5.52,1.58h-.01s-.08.12-.08.12c-.08.12-.16.24-.23.36l-9.83,15.63c-.18.17-.32.38-.42.62-.36.92.1,1.95,1.01,2.31.79.31,1.65.01,2.11-.65l.04.04,14.32-11.97h-.01c.56-.5,1.03-1.12,1.32-1.86Z"/>
        </g>
      </g>
      <g>
        <g>
          <path class="cls-2" d="M150.2,221.19h.94v3.9h7.33v-3.9h.94v8.95h-.94v-4.41h-7.33v4.41h-.94v-8.95Z"/>
          <path class="cls-2" d="M163.91,221.19v5.42c0,2.38,1.83,2.99,3.56,2.99,2.04,0,3.56-.63,3.56-2.99v-5.42h.96v5.38c0,2.8-2.02,3.67-4.55,3.67s-4.5-.96-4.5-3.56v-5.5h.98Z"/>
          <path class="cls-2" d="M186.08,226.02c0-1.75.02-3.43.07-4.32h-.05c-.49,1.2-2.96,5.61-4.52,8.44h-.92c-1.17-2.19-3.73-7.1-4.29-8.45h-.03c.09,1.02.12,3.11.12,4.64v3.81h-.94v-8.95h1.41c1.67,3.07,3.78,7.08,4.24,8.09h.03c.28-.65,2.72-5.11,4.43-8.09h1.39v8.95h-.94v-4.12Z"/>
          <path class="cls-2" d="M190.62,221.19h4.26c2.34,0,3.59.91,3.59,2.2,0,1.06-.87,1.75-1.88,1.96.87.18,2.32.81,2.32,2.21,0,1.79-1.83,2.58-3.96,2.58h-4.33v-8.95ZM194.56,225.04c2.11,0,2.91-.58,2.91-1.61,0-.88-.84-1.6-2.55-1.6h-3.38v3.21h3.02ZM191.54,229.5h3.44c1.6,0,2.95-.59,2.95-1.91,0-1.14-.99-1.92-3.45-1.92h-2.93v3.82Z"/>
          <path class="cls-2" d="M201.7,221.19h.94v8.31h6.56l-.17.64h-7.33v-8.95Z"/>
          <path class="cls-2" d="M218.25,225.74h-6.23v3.76h6.82l-.14.64h-7.62v-8.95h7.48v.64h-6.54v3.27h6.23v.64Z"/>
          <path class="cls-2" d="M225.79,221.19h4.05c3.35,0,5.67,1.71,5.67,4.4s-2.27,4.55-5.69,4.55h-4.03v-8.95ZM226.73,229.5h2.95c3.23,0,4.81-1.66,4.81-3.88,0-1.97-1.43-3.8-4.81-3.8h-2.95v7.67Z"/>
          <path class="cls-2" d="M245.36,225.74h-6.23v3.76h6.82l-.14.64h-7.62v-8.95h7.48v.64h-6.54v3.27h6.23v.64Z"/>
          <path class="cls-2" d="M248.56,227.73c.37,1.19,1.45,1.89,3.45,1.89,2.23,0,3.09-.82,3.09-1.79s-.61-1.64-3.3-2.12c-2.58-.47-3.7-1.09-3.7-2.38,0-1.18,1.17-2.28,3.79-2.28s3.82,1.2,3.98,2.29h-.98c-.28-.96-1.13-1.65-3.05-1.65-1.76,0-2.72.6-2.72,1.6s.8,1.37,3.05,1.78c3.44.63,3.94,1.64,3.94,2.71,0,1.32-1.31,2.46-4.13,2.46-3.05,0-4.17-1.3-4.4-2.51h.98Z"/>
          <path class="cls-2" d="M259.73,221.19v8.95h-.94v-8.95h.94Z"/>
          <path class="cls-2" d="M272.56,230.14h-.78c-.07-.1-.11-.56-.12-1.43-.44.61-1.4,1.54-3.94,1.54-3.5,0-5.3-1.96-5.3-4.5,0-2.67,1.92-4.68,5.49-4.68,2.63,0,4.38,1.01,4.76,2.66h-.94c-.52-1.27-1.73-2.02-3.85-2.02-3.05,0-4.45,1.74-4.45,4,0,2.05,1.34,3.9,4.33,3.9s3.91-1.46,3.91-3.44v-.1h-3.94v-.64h4.85v4.72Z"/>
          <path class="cls-2" d="M275.72,230.14v-8.95h1.4c1.9,2.15,6.37,7.15,7.13,8.12h.02c-.1-1.29-.09-2.61-.09-4.07v-4.05h.96v8.95h-1.29c-1.81-2.07-6.35-7.28-7.22-8.26h-.02c.09,1.18.07,2.48.07,4.1v4.16h-.96Z"/>
        </g>
        <g>
          <path class="cls-2" d="M150.2,208.77h.94v3.9h7.33v-3.9h.94v8.95h-.94v-4.41h-7.33v4.41h-.94v-8.95Z"/>
          <path class="cls-2" d="M164.14,214.63l-1.55,3.09h-.96l4.48-8.95h1.12l4.67,8.95h-1.03l-1.59-3.09h-5.15ZM168.97,213.99c-1.36-2.66-2.06-3.94-2.3-4.54h-.02c-.3.68-1.08,2.26-2.18,4.54h4.5Z"/>
          <path class="cls-2" d="M174.06,208.77h.94v8.31h6.56l-.17.64h-7.33v-8.95Z"/>
          <path class="cls-2" d="M183.45,208.77h7.4v.64h-6.45v3.38h6.05v.64h-6.05v4.3h-.94v-8.95Z"/>
        </g>
        <rect class="cls-2" x="6.14" y="215.96" width="27.45" height="1.9"/>
        <rect class="cls-2" x="4.49" y="221.28" width="30.74" height="1.9"/>
        <rect class="cls-2" x="19.01" y="209.08" width="1.9" height="21.56"/>
        <rect class="cls-2" x="25.2" y="211.52" width="6.39" height="1.9" transform="translate(-110.43 49.13) rotate(-32.75)"/>
        <path class="cls-2" d="M12.89,215.33c-3.17-2.07-5.02-3.83-5.1-3.9l1.31-1.37s1.81,1.72,4.82,3.68l-1.04,1.59Z"/>
        <rect class="cls-2" x="48.19" y="209.15" width="1.9" height="3.18"/>
        <rect class="cls-2" x="40.69" y="210.47" width="16.51" height="1.9"/>
        <path class="cls-2" d="M54.17,217.58h-10.44v-3.89h10.44v3.89ZM45,216.32h7.91v-1.36h-7.91v1.36Z"/>
        <path class="cls-2" d="M48.38,227.27c-1.93,0-4.44-1.43-4.77-1.62l.64-1.09c1.29.75,3.7,1.79,4.7,1.36.14-.06.31-.17.39-.5.51-2.15-1.91-3.23-1.93-3.24l.05-1.18,3.63-1.21h-8.43v-1.26h12.34l.2,1.23-6.08,2.02c.98.82,1.87,2.16,1.45,3.93-.15.65-.54,1.13-1.12,1.38-.32.14-.68.19-1.06.19Z"/>
        <rect class="cls-2" x="41.34" y="221.65" width="15.25" height="1.26" transform="translate(-21.05 5.71) rotate(-5.49)"/>
        <path class="cls-2" d="M74.44,227.01c-.32,0-.67-.04-1.02-.11-3.23-.64-2.44-8.17-1.74-12.39h-13.42v-1.9h14.55c.28,0,.55.13.73.34.18.22.25.5.2.78-1.15,6.13-.92,11.11.04,11.3.7.14,1.25.07,1.67-.22.92-.63.94-1.76.94-1.8l1.9-.02c0,.09.01,2.18-1.77,3.39-.6.41-1.3.62-2.09.62Z"/>
        <path class="cls-2" d="M57.46,227.48l-.9-1.67c3.11-1.68,5.29-4.35,6.48-7.94,1.29-3.91,1.28-7.78,1.28-7.82h1.9c0,.16,0,4.21-1.38,8.41-1.34,4.07-3.83,7.1-7.38,9.02Z"/>
        <rect class="cls-2" x="61.8" y="216.34" width="1.9" height="9.11" transform="translate(-151.72 138.82) rotate(-53.2)"/>
        <rect class="cls-2" x="4.62" y="241.22" width="1.9" height="9.52" transform="translate(-193.18 100.93) rotate(-52.58)"/>
        <rect class="cls-2" x="4.03" y="252.27" width="1.9" height="11.47" transform="translate(-194.67 94.51) rotate(-49.58)"/>
        <rect class="cls-2" x="-4.66" y="274.84" width="18.89" height="1.9" transform="translate(-249.93 169.93) rotate(-66.44)"/>
        <rect class="cls-2" x="11.4" y="244.58" width="25.68" height="1.9"/>
        <polygon class="cls-2" points="29.88 251.76 18.6 251.76 18.6 242.06 20.5 242.06 20.5 249.87 27.98 249.87 27.98 242.06 29.88 242.06 29.88 251.76"/>
        <path class="cls-2" d="M35.54,263.25H12.94v-8.84h22.6v8.84ZM14.84,261.35h18.8v-5.04H14.84v5.04Z"/>
        <path class="cls-2" d="M11.09,285.74l-.73-1.75c9.93-4.15,12.55-9.24,12.93-10.11v-23.06h1.9l-.05,23.55c-.09.26-2.33,6.46-14.05,11.36Z"/>
        <path class="cls-2" d="M37.74,284.9c-9.22-.29-14.14-10-14.35-10.41l1.7-.85c.05.09,4.64,9.11,12.71,9.36l-.06,1.9Z"/>
        <rect class="cls-2" x="13.14" y="266.48" width="23.35" height="1.9"/>
        <rect class="cls-2" x="10.73" y="272.76" width="27.51" height="1.9"/>
        <path class="cls-2" d="M42.82,256.03l-1.34-1.34c5.42-5.42,8.48-12.91,8.51-12.99l1.76.71c-.13.32-3.24,7.93-8.93,13.62Z"/>
        <rect class="cls-2" x="46.78" y="248.12" width="1.9" height="21.54"/>
        <path class="cls-2" d="M73.92,252.09h-17.43v-9.5h17.43v9.5ZM58.39,250.2h13.64v-5.7h-13.64v5.7Z"/>
        <rect class="cls-2" x="53.64" y="255.57" width="22.19" height="1.9"/>
        <rect class="cls-2" x="64.26" y="250.82" width="1.9" height="17.77"/>
        <path class="cls-2" d="M52.33,266.69l-.44-1.84c.09-.02,8.63-2.15,12.5-8.81l1.22-2.1.53,2.37s1.33,4.79,12.03,8.57l-.63,1.79c-7.95-2.8-11.17-6.21-12.45-8.23-4.54,6.22-12.4,8.17-12.75,8.26Z"/>
        <rect class="cls-2" x="47.05" y="271.85" width="27.5" height="1.9"/>
        <rect class="cls-2" x="59.85" y="269.66" width="1.9" height="13.8"/>
        <rect class="cls-2" x="42.73" y="282.51" width="35.12" height="1.9"/>
        <rect class="cls-2" x="41.1" y="228.21" width="3.11" height="1.9" transform="translate(-152.88 102.28) rotate(-46.48)"/>
        <rect class="cls-2" x="51.17" y="227.82" width="1.9" height="2.88" transform="translate(-111.38 60.31) rotate(-31.25)"/>
        <rect class="cls-2" x="60.95" y="227.91" width="1.9" height="2.5" transform="translate(-93.37 49.62) rotate(-25.74)"/>
        <rect class="cls-2" x="72.31" y="225.43" width="1.9" height="7.98" transform="translate(-167.32 218.25) rotate(-69.63)"/>
        <rect class="cls-2" x="90.88" y="242.06" width="1.9" height="4.38"/>
        <rect class="cls-2" x="84.15" y="245.49" width="15.12" height="1.9"/>
        <rect class="cls-2" x="85.97" y="251.03" width="10.96" height="1.9"/>
        <rect class="cls-2" x="85.97" y="257.25" width="10.96" height="1.9"/>
        <path class="cls-2" d="M97.88,284.4h-12.86v-19.58h12.86v19.58ZM86.92,282.51h9.07v-15.79h-9.07v15.79Z"/>
        <rect class="cls-2" x="132.03" y="242.06" width="1.9" height="4.38"/>
        <rect class="cls-2" x="125.29" y="245.49" width="15.12" height="1.9"/>
        <rect class="cls-2" x="266.98" y="242.06" width="1.9" height="4.38"/>
        <polygon class="cls-2" points="285.49 255.99 283.59 255.99 283.59 247.39 252.02 247.39 252.02 255.99 250.12 255.99 250.12 245.49 285.49 245.49 285.49 255.99"/>
        <rect class="cls-2" x="127.37" y="251.03" width="10.96" height="1.9"/>
        <rect class="cls-2" x="127.37" y="257.25" width="10.96" height="1.9"/>
        <path class="cls-2" d="M139.28,284.4h-12.86v-19.58h12.86v19.58ZM128.32,282.51h9.07v-15.79h-9.07v15.79Z"/>
        <path class="cls-2" d="M119.56,259.26c-6.32-2.04-6.72-11.59-6.67-14.76h-5.79c.27,2.98.32,11.05-6.48,14.55l-.87-1.69c6.99-3.59,5.36-13.55,5.34-13.65-.05-.28.03-.56.21-.77.18-.21.44-.34.72-.34h7.85c.26,0,.51.11.69.3.18.19.27.45.25.71,0,.12-.72,11.89,5.33,13.84l-.58,1.81Z"/>
        <path class="cls-2" d="M101.34,284.29l-.91-1.66c11.57-6.32,14.52-15.68,15.2-18.79h-13.14v-1.9h14.27c.27,0,.52.11.7.31.18.2.27.47.24.73-.06.53-1.52,13.2-16.37,21.31Z"/>
        <path class="cls-2" d="M120.09,284.33c-12.39-5.19-17.91-18.17-18.14-18.72l1.75-.73c.05.13,5.46,12.82,17.12,17.7l-.73,1.75Z"/>
        <rect class="cls-2" x="142.34" y="251.4" width="19.91" height="1.9"/>
        <rect class="cls-2" x="151.35" y="242.06" width="1.9" height="42.55"/>
        <rect class="cls-2" x="171.94" y="246.17" width="29.44" height="1.9"/>
        <rect class="cls-2" x="167.17" y="283" width="37.55" height="1.9"/>
        <rect class="cls-2" x="185.28" y="247.12" width="1.9" height="36.74"/>
        <path class="cls-2" d="M208.84,261.74l-1.51-1.15c4.32-5.64,10.07-17.58,10.12-17.7l1.71.82c-.24.5-5.89,12.24-10.33,18.03Z"/>
        <path class="cls-2" d="M219.57,262.73l-1.32-1.36c5.74-5.59,10.52-19.73,10.56-19.88l1.8.6c-.2.6-4.97,14.73-11.04,20.63Z"/>
        <rect class="cls-2" x="225.68" y="250.44" width="18.67" height="1.9"/>
        <rect class="cls-2" x="212.79" y="252.13" width="1.9" height="32.91"/>
        <rect class="cls-2" x="230.15" y="259.76" width="11.84" height="1.9"/>
        <rect class="cls-2" x="230.15" y="267.88" width="11.5" height="1.9"/>
        <rect class="cls-2" x="257.42" y="253.94" width="20.66" height="1.9"/>
        <path class="cls-2" d="M257.42,267.59c-.38,0-.72-.22-.87-.57-.16-.38-.06-.82.24-1.09.07-.06,6.66-5.91,9.21-11.47l1.72.79c-1.82,3.97-5.41,7.93-7.67,10.2l17.4-1.6.17,1.89-20.12,1.84s-.06,0-.09,0Z"/>
        <path class="cls-2" d="M279.34,268.88c-1.81-3.59-6.34-6.93-6.39-6.96l1.12-1.53c.2.15,4.94,3.64,6.96,7.64l-1.69.85Z"/>
        <rect class="cls-2" x="266.86" y="265.69" width="1.9" height="18.26"/>
        <rect class="cls-2" x="250.37" y="283" width="34.76" height="1.9"/>
        <rect class="cls-2" x="255" y="273.33" width="25.72" height="1.9"/>
        <rect class="cls-2" x="228.76" y="251.39" width="1.9" height="33.65"/>
      </g>
    </g>
  </g>
</svg>